<svg xmlns="http://www.w3.org/2000/svg" width="49.92" height="49.92" viewBox="0 0 49.92 49.92"><defs><style>.a{fill:#f1c40f;}.b{fill:#e74c3c;}.c{fill:#fe6161;}.d{fill:#fbcd59;}.e{fill:#fff;}.f{fill:#472b29;}</style></defs><path class="a" d="M26.14,61.02a1.28,1.28,0,1,0,1.28,1.28A1.28,1.28,0,0,0,26.14,61.02Z" transform="translate(-24.86 -50.78)"/><path class="b" d="M172.4,27.12a.64.64,0,1,0,.64.64A.64.64,0,0,0,172.4,27.12Z" transform="translate(-130.16 -26.48)"/><path class="c" d="M53.06,29.38A23.68,23.68,0,1,0,76.74,53.06,23.68,23.68,0,0,0,53.06,29.38Z" transform="translate(-28.1 -28.1)"/><path class="b" d="M181.1,24.86a2.56,2.56,0,1,0,2.56,2.56A2.56,2.56,0,0,0,181.1,24.86Z" transform="translate(-135.02 -24.86)"/><path class="a" d="M193.38,49.72A1.28,1.28,0,1,0,194.66,51,1.28,1.28,0,0,0,193.38,49.72Z" transform="translate(-144.74 -42.68)"/><path class="d" d="M69.66,142.94a1.28,1.28,0,1,0,1.28,1.28A1.28,1.28,0,0,0,69.66,142.94Zm-42.24-9.6a2.56,2.56,0,1,0,2.56,2.56A2.56,2.56,0,0,0,27.42,133.34Z" transform="translate(-24.86 -102.62)"/><path class="a" d="M53.26,192.1a1.28,1.28,0,1,0,1.28,1.28A1.28,1.28,0,0,0,53.26,192.1Z" transform="translate(-44.3 -144.74)"/><path class="e" d="M37.76,115.26a1.6,1.6,0,1,0,1.6,1.6A1.6,1.6,0,0,0,37.76,115.26Z" transform="translate(-32.96 -89.66)"/><path class="b" d="M45.84,149.16a.64.64,0,1,0,.64.64A.64.64,0,0,0,45.84,149.16Z" transform="translate(-39.44 -113.96)"/><path class="e" d="M179.18,74.58a.64.64,0,1,0,.64.64A.64.64,0,0,0,179.18,74.58Z" transform="translate(-135.02 -60.5)"/><g transform="translate(13.784 13.181)"><path class="d" d="M108.6,105.124l-.86-7.632a8.007,8.007,0,0,0-7.983-7.983H99a8.007,8.007,0,0,0-7.983,7.983l-.86,7.632a1.641,1.641,0,0,0,0,3.283H108.6a1.641,1.641,0,1,0,0-3.283Z" transform="translate(-88.135 -87.744)"/><path class="f" d="M108.128,108.312H89.678a2.018,2.018,0,0,1-.339-4.008l.826-7.327a8.356,8.356,0,0,1,8.356-8.317h.76a8.369,8.369,0,0,1,8.359,8.359l.824,7.284a2.018,2.018,0,0,1-.338,4.008Zm-9.606-18.9a7.615,7.615,0,0,0-7.607,7.607l-.863,7.674a.377.377,0,0,1-.374.334,1.266,1.266,0,0,0,0,2.532h18.448a1.266,1.266,0,0,0,0-2.532.377.377,0,0,1-.374-.334l-.86-7.632a7.628,7.628,0,0,0-7.609-7.649Z" transform="translate(-87.661 -87.272)"/><path class="d" d="M112.613,87.4a1.554,1.554,0,0,0-3.068,0Z" transform="translate(-99.835 -85.845)"/><path class="f" d="M112.3,87.337h-3.069a.25.25,0,0,1-.247-.291,1.805,1.805,0,0,1,3.564,0,.254.254,0,0,1-.056.2.257.257,0,0,1-.192.087Zm-2.738-.5h2.408a1.3,1.3,0,0,0-2.408,0Z" transform="translate(-99.52 -85.532)"/><path class="d" d="M106.035,132.578a3.112,3.112,0,0,0,6.183,0Z" transform="translate(-97.883 -111.705)"/><path class="f" d="M108.653,135.235a3.487,3.487,0,0,1-3.464-3.084.376.376,0,0,1,.374-.418h6.183a.376.376,0,0,1,.374.418,3.489,3.489,0,0,1-3.466,3.084Zm-2.635-2.751a2.737,2.737,0,0,0,5.271,0Z" transform="translate(-97.411 -111.235)"/><g transform="translate(16.019 17.169)"><path class="f" d="M125.167,124.731h-1.149a.251.251,0,1,1,0-.5h1.149a.251.251,0,1,1,0,.5Z" transform="translate(-123.767 -124.23)"/></g><g transform="translate(14.798 17.169)"><path class="f" d="M121.523,124.731h-.258a.251.251,0,1,1,0-.5h.258a.251.251,0,1,1,0,.5Z" transform="translate(-121.014 -124.23)"/></g><g transform="translate(1.746 17.169)"><path class="f" d="M104.07,124.731H91.846a.251.251,0,0,1,0-.5H104.07a.251.251,0,1,1,0,.5Z" transform="translate(-91.595 -124.23)"/></g></g></svg>