<svg xmlns="http://www.w3.org/2000/svg" width="49.92" height="48.64" viewBox="0 0 49.92 48.64"><defs><style>.a{fill:#f1bc19;}.b{fill:#f8c83b;}.c{fill:#88ae45;}.d{fill:#fbcd59;}.e{fill:#e74c3c;}.f{fill:#fff;}.g{fill:#fdfcef;}.h{fill:#472b29;}.i{fill:#f6cca4;}.j{fill:#e2e2e2;}</style></defs><circle class="a" cx="0.64" cy="0.64" r="0.64" transform="translate(41.6 0.64)"/><circle class="b" cx="23.68" cy="23.68" r="23.68" transform="translate(1.28 1.28)"/><circle class="a" cx="2.56" cy="2.56" r="2.56" transform="translate(43.52)"/><circle class="c" cx="1.28" cy="1.28" r="1.28" transform="translate(47.36 7.04)"/><circle class="d" cx="1.28" cy="1.28" r="1.28" transform="translate(43.52 40.32)"/><circle class="e" cx="2.56" cy="2.56" r="2.56" transform="translate(0 30.72)"/><circle class="f" cx="1.6" cy="1.6" r="1.6" transform="translate(3.2 24.32)"/><circle class="f" cx="0.96" cy="0.96" r="0.96" transform="translate(42.88 13.44)"/><circle class="c" cx="1.28" cy="1.28" r="1.28" transform="translate(6.4 44.8)"/><path class="g" d="M81.514,92.009l-7.484-.666c.026-2.953.026-2.971.025-2.98a6.8,6.8,0,0,1,1.884-4.021l2.573-2.625a1.263,1.263,0,0,0,0-1.8l-2.4-2.446a7.056,7.056,0,0,1-2.061-4.858V70.154a3.584,3.584,0,0,1,.376-.1H88.319s.015.023.033.062v2.815a7.205,7.205,0,0,1-1.777,4.541l-2.4,2.446a1.262,1.262,0,0,0-.006,1.791l2.579,2.63a6.78,6.78,0,0,1,1.9,4.031.434.434,0,0,0,.4.451v2.518l-7.481.668Z" transform="translate(-56.106 -57.257)"/><path class="h" d="M86.678,69.367V71.78a6.769,6.769,0,0,1-1.651,4.245l-2.4,2.445a1.717,1.717,0,0,0,0,2.424L85.2,83.52a6.393,6.393,0,0,1,1.77,3.721.8.8,0,0,0,.4.736V89.8l-7.048.626L73.274,89.8c0-2.48,0-2.563,0-2.563h0a6.4,6.4,0,0,1,1.755-3.716l2.583-2.634a1.714,1.714,0,0,0-.01-2.414l-2.4-2.446-.02-.02-.017-.016a6.607,6.607,0,0,1-1.9-4.508V69.367h13.4m.424-.9H73.158s-1.1.208-.78.45v2.56a7.44,7.44,0,0,0,2.189,5.172l2.4,2.446a.831.831,0,0,1,0,1.169l-2.573,2.625a7.225,7.225,0,0,0-2.011,4.349c0,.02,0,2.964,0,2.964a.439.439,0,0,0,.386.447l7.523.668h.068l7.523-.668a.439.439,0,0,0,.386-.448V87.3a2.65,2.65,0,0,1-.4-.058,7.235,7.235,0,0,0-2.026-4.348l-2.574-2.625a.831.831,0,0,1,0-1.169l2.4-2.446A7.594,7.594,0,0,0,87.573,71.8V68.9a.539.539,0,0,0-.471-.433Z" transform="translate(-54.879 -56.121)"/><g transform="translate(17.167 13.281)"><path class="i" d="M88.078,93.44l-.137-.054-6.822-5.34V81.235a4.246,4.246,0,0,1,1.4-2.9l2.847-3.059a4.2,4.2,0,0,0,1.24-2.96H74.463a4.255,4.255,0,0,0,1.24,2.96l2.884,3.092a4.907,4.907,0,0,1,1.252,2.862v6.808l-6.851,5.4Z" transform="translate(-72.527 -72.161)"/><path class="h" d="M87.75,93.2H71.358l7.153-5.636v-6.73a4.716,4.716,0,0,0-1.2-2.744l-2.893-3.1a4.454,4.454,0,0,1-1.284-3.069v-.16H85.6v.161A4.341,4.341,0,0,1,84.3,75l-2.836,3.047a4.107,4.107,0,0,0-1.354,2.795v6.726l6.742,5.277Zm-15.468-.32h14.1L79.79,87.721V80.832a4.424,4.424,0,0,1,1.45-3.015l2.838-3.049a3.946,3.946,0,0,0,1.192-2.691H73.459a4.017,4.017,0,0,0,1.18,2.68l2.9,3.1a5.068,5.068,0,0,1,1.293,2.952v6.9Z" transform="translate(-71.358 -71.757)"/></g><g transform="translate(16.16 9.6)"><path class="j" d="M70.237,63.924a.932.932,0,0,1-.855-.991v-1.6a.932.932,0,0,1,.855-.991H85.551a.932.932,0,0,1,.855.991v1.6a.932.932,0,0,1-.855.991Z" transform="translate(-68.934 -59.892)"/><path class="h" d="M84.417,59.656c.217,0,.407.253.407.543v1.6c0,.289-.19.543-.407.543H69.1c-.217,0-.407-.253-.407-.543V60.2c0-.289.19-.543.407-.543H84.417m0-.9H69.1A1.38,1.38,0,0,0,67.8,60.2v1.6a1.38,1.38,0,0,0,1.3,1.438H84.417a1.38,1.38,0,0,0,1.3-1.439V60.2A1.38,1.38,0,0,0,84.417,58.76Z" transform="translate(-67.8 -58.76)"/></g><g transform="translate(16.16 33.28)"><path class="j" d="M70.132,147.548a.846.846,0,0,1-.75-.9v-1.785a.846.846,0,0,1,.75-.9H85.656a.846.846,0,0,1,.75.9v1.785a.846.846,0,0,1-.75.9Z" transform="translate(-68.934 -143.516)"/><path class="h" d="M84.522,143.276c.143,0,.3.193.3.452v1.785c0,.259-.159.452-.3.452H69c-.143,0-.3-.193-.3-.452v-1.785c0-.259.159-.452.3-.452H84.522m0-.9H69a1.283,1.283,0,0,0-1.2,1.347v1.785A1.283,1.283,0,0,0,69,146.86H84.522a1.283,1.283,0,0,0,1.2-1.347v-1.785a1.283,1.283,0,0,0-1.2-1.348Z" transform="translate(-67.8 -142.38)"/></g><g transform="translate(18.24 11.68)"><path class="h" d="M78.5,66.425h-3.2a.16.16,0,0,1,0-.32h3.2a.16.16,0,0,1,0,.32Z" transform="translate(-75.145 -66.105)"/></g><g transform="translate(18.24 35.36)"><path class="h" d="M77.225,150.045h-1.92a.16.16,0,1,1,0-.32h1.92a.16.16,0,0,1,0,.32Z" transform="translate(-75.145 -149.725)"/></g><g transform="translate(21.44 35.36)"><path class="h" d="M93.005,150.045h-6.4a.16.16,0,1,1,0-.32h6.4a.16.16,0,0,1,0,.32Z" transform="translate(-86.445 -149.725)"/></g><g transform="translate(23.36 11.68)"><path class="h" d="M101.705,66.425h-8.32a.16.16,0,0,1,0-.32h8.32a.16.16,0,0,1,0,.32Z" transform="translate(-93.225 -66.105)"/></g></svg>