<svg xmlns="http://www.w3.org/2000/svg" width="49.92" height="49.92" viewBox="0 0 49.92 49.92"><defs><style>.a{fill:#5cdec4;}.b{fill:#2ecc71;}.c{fill:#f1bc19;}.d{fill:#fbcd59;}.e{fill:#fff;}.f{fill:#472b29;}.g{fill:#a2a2cc;}.h{fill:none;}</style></defs><g transform="translate(-828.04 -897.04)"><path class="a" d="M53.06,29.38A23.68,23.68,0,1,0,76.74,53.06,23.68,23.68,0,0,0,53.06,29.38Z" transform="translate(799.66 868.66)"/><path class="b" d="M26.14,61.02a1.28,1.28,0,1,0,1.28,1.28A1.28,1.28,0,0,0,26.14,61.02Z" transform="translate(803.18 846.26)"/><path class="c" d="M172.4,27.12a.64.64,0,1,0,.64.64A.64.64,0,0,0,172.4,27.12Z" transform="translate(697.88 870.56)"/><path class="c" d="M181.1,24.86a2.56,2.56,0,1,0,2.56,2.56A2.56,2.56,0,0,0,181.1,24.86Z" transform="translate(693.02 872.18)"/><path class="b" d="M193.38,49.72A1.28,1.28,0,1,0,194.66,51,1.28,1.28,0,0,0,193.38,49.72Z" transform="translate(683.3 854.36)"/><path class="d" d="M69.66,142.94a1.28,1.28,0,1,0,1.28,1.28A1.28,1.28,0,0,0,69.66,142.94Zm-42.24-9.6a2.56,2.56,0,1,0,2.56,2.56A2.56,2.56,0,0,0,27.42,133.34Z" transform="translate(803.18 794.42)"/><path class="b" d="M53.26,192.1a1.28,1.28,0,1,0,1.28,1.28A1.28,1.28,0,0,0,53.26,192.1Z" transform="translate(783.74 752.3)"/><path class="e" d="M37.76,115.26a1.6,1.6,0,1,0,1.6,1.6A1.6,1.6,0,0,0,37.76,115.26Z" transform="translate(795.08 807.38)"/><path class="c" d="M45.84,149.16a.64.64,0,1,0,.64.64A.64.64,0,0,0,45.84,149.16Z" transform="translate(788.6 783.08)"/><path class="e" d="M179.18,74.58a.64.64,0,1,0,.64.64A.64.64,0,0,0,179.18,74.58Z" transform="translate(693.02 836.54)"/><g transform="translate(150.658 -123.456) rotate(9)"><g transform="translate(843.211 908.777)"><path class="e" d="M109.784,98.184a3.412,3.412,0,0,1,2.294-3.277,13.107,13.107,0,0,0-1.638-4.041,3.313,3.313,0,0,1-3.932-.546,3.141,3.141,0,0,1-.546-3.932,13.107,13.107,0,0,0-4.041-1.638,3.126,3.126,0,0,1-2.84,2.4,3.3,3.3,0,0,1-3.5-2.4,14.3,14.3,0,0,0-4.041,1.638A3.313,3.313,0,0,1,91,90.32a3.01,3.01,0,0,1-3.932.546,13.107,13.107,0,0,0-1.638,4.041,3.31,3.31,0,0,1,.109,6.335,12.5,12.5,0,0,0,1.638,3.932,3.286,3.286,0,0,1,4.478,4.369,13.108,13.108,0,0,0,4.041,1.638v-.109a3.31,3.31,0,0,1,6.226,0c.109.109.109.109.218.109a13.275,13.275,0,0,0,3.6-1.529c.109,0,.109-.109.218-.109a3.006,3.006,0,0,1,.437-3.5,3.207,3.207,0,0,1,4.041-.874,12.5,12.5,0,0,0,1.638-3.932A3.146,3.146,0,0,1,109.784,98.184Zm-11.031,2.294a2.307,2.307,0,0,1-2.294-2.294,2.349,2.349,0,0,1,4.7.109,2.476,2.476,0,0,1-2.4,2.184Z" transform="translate(-85.167 -84.598)"/><path class="f" d="M95.415,111.674h0a12.693,12.693,0,0,1-4.15-1.638c-.218-.109-.218-.328-.109-.546a2.86,2.86,0,0,0-3.932-3.823.48.48,0,0,1-.546-.109,14.623,14.623,0,0,1-1.748-4.041c0-.218.109-.437.218-.437a2.906,2.906,0,0,0,0-5.57c-.218-.109-.328-.218-.218-.437a14.946,14.946,0,0,1,1.638-4.15c.109-.218.328-.218.546-.109a2.933,2.933,0,0,0,3.932-4.041.48.48,0,0,1,.109-.546,15.82,15.82,0,0,1,4.15-1.748c.218,0,.437.109.437.218a2.9,2.9,0,0,0,5.57,0c.109-.218.218-.328.437-.218a12.485,12.485,0,0,1,4.15,1.748c.218.109.218.328.109.546a2.921,2.921,0,0,0,.437,3.5,2.772,2.772,0,0,0,3.5.437c.109-.109.328,0,.437.109a13.463,13.463,0,0,1,1.748,4.26.568.568,0,0,1-.218.437,2.876,2.876,0,0,0-2.075,2.84h0a2.754,2.754,0,0,0,2.075,2.731c.218.109.328.218.218.437a11.1,11.1,0,0,1-1.748,4.041c-.109.218-.328.218-.546.109a2.73,2.73,0,0,0-3.6.765,2.774,2.774,0,0,0-.328,3.167.48.48,0,0,1-.109.546l-.218.109a15.666,15.666,0,0,1-3.714,1.529.607.607,0,0,1-.765-.328,2.82,2.82,0,0,0-2.731-1.857,2.785,2.785,0,0,0-2.621,1.966v.109c0-.218-.218,0-.328,0Zm-3.5-2.294a14.666,14.666,0,0,0,3.277,1.311,3.519,3.519,0,0,1,3.277-2.184h0a3.731,3.731,0,0,1,3.386,2.184,14.667,14.667,0,0,0,3.277-1.311,3.653,3.653,0,0,1,4.7-4.806,10.842,10.842,0,0,0,1.311-3.277,3.681,3.681,0,0,1-2.294-3.277h0a3.546,3.546,0,0,1,2.294-3.5,17.1,17.1,0,0,0-1.311-3.277,3.65,3.65,0,0,1-4.806-4.806,10.842,10.842,0,0,0-3.277-1.311,3.391,3.391,0,0,1-3.058,2.294,3.468,3.468,0,0,1-3.713-2.294A14.663,14.663,0,0,0,91.7,86.444,3.65,3.65,0,0,1,86.9,91.25a14.662,14.662,0,0,0-1.311,3.277A3.515,3.515,0,0,1,87.879,97.8a3.643,3.643,0,0,1-2.294,3.5,14.182,14.182,0,0,0,1.42,3.277,3.478,3.478,0,0,1,3.932.765A3.58,3.58,0,0,1,91.92,109.381Zm6.553-8.738h0a3.14,3.14,0,0,1-1.966-.765,2.632,2.632,0,0,1-.765-1.966,3.14,3.14,0,0,1,.765-1.966,2.632,2.632,0,0,1,1.966-.765,2.735,2.735,0,0,1,1.966.874,2.632,2.632,0,0,1,.765,1.966,4.721,4.721,0,0,1-1.029,2.082A4.638,4.638,0,0,1,98.474,100.643Zm0-4.587a2.3,2.3,0,0,0-1.42.546,2.015,2.015,0,0,0-.546,1.311,2.572,2.572,0,0,0,.546,1.42,2.076,2.076,0,0,0,1.42.546,2.015,2.015,0,0,0,1.966-1.857,2.3,2.3,0,0,0-.546-1.42,2.077,2.077,0,0,0-1.42-.546Z" transform="translate(-84.887 -84.435)"/><path class="f" d="M112.466,101.341a8.736,8.736,0,0,0-10.485-6.226,8.536,8.536,0,0,0-6.226,10.376,8.736,8.736,0,0,0,10.485,6.226A8.535,8.535,0,0,0,112.466,101.341Zm-6.663,8.738a6.926,6.926,0,0,1-8.41-4.915,6.747,6.747,0,0,1,5.024-8.3,6.967,6.967,0,0,1,8.3,5.024A6.836,6.836,0,0,1,105.8,110.079Z" transform="translate(-90.36 -89.83)"/><path class="f" d="M104.188,110.414a7.213,7.213,0,0,1-6.881-5.352,7.051,7.051,0,0,1,.765-5.352,7.373,7.373,0,0,1,4.369-3.277,7.051,7.051,0,0,1,5.352.765,7.373,7.373,0,0,1,3.277,4.369,7.066,7.066,0,0,1-5.133,8.628h0A10.891,10.891,0,0,1,104.188,110.414Zm1.638-.546Zm-1.638-13.107a8.43,8.43,0,0,0-1.638.218,7.289,7.289,0,0,0-4.041,2.949,6.444,6.444,0,0,0,7.1,9.611h0a6.5,6.5,0,0,0,4.7-7.864,7.289,7.289,0,0,0-2.949-4.041A6.265,6.265,0,0,0,104.188,96.762ZM96,100.584h0c-.218-.109-.328-.218-.218-.437A9.023,9.023,0,0,1,102,94.468c.109,0,.328,0,.328.218s0,.328-.218.328a8.027,8.027,0,0,0-5.789,5.243Q96.16,100.584,96,100.584Z" transform="translate(-90.493 -89.619)"/><path class="f" d="M103.993,123.154a7.937,7.937,0,0,1-2.731-.437,8.794,8.794,0,0,1-6.116-6.226c0-.109,0-.328.218-.328.109,0,.328,0,.328.218a8.157,8.157,0,0,0,5.789,5.789,8.31,8.31,0,0,0,8.082-1.747.309.309,0,0,1,.437.437A8.794,8.794,0,0,1,103.993,123.154Z" transform="translate(-90.188 -100.83)"/><path class="g" d="M128.236,121.136c-.218.328-.328.655-.546.983" transform="translate(-107.004 -103.399)"/><path class="f" d="M127.34,122.055h-.218c-.109-.109-.109-.218-.109-.437a3.832,3.832,0,0,0,.546-.874c.109-.109.218-.218.437-.109.109.109.218.218.109.437l-.655.983Z" transform="translate(-106.654 -103.117)"/><path class="g" d="M130.044,116.39a8.559,8.559,0,0,1-.546,1.529" transform="translate(-107.938 -100.947)"/><path class="f" d="M123.659,107.153h-.109c-.109-.109-.218-.218-.109-.328a7.063,7.063,0,0,0,.437-1.42c0-.109.218-.218.328-.218s.218.218.218.328a6.315,6.315,0,0,1-.546,1.529A.381.381,0,0,1,123.659,107.153Zm.437-5.57c-.109,0-.218-.109-.328-.218a8.532,8.532,0,0,0-5.352-5.9c-.109,0-.218-.218-.218-.328s.218-.218.328-.218a8.606,8.606,0,0,1,5.68,6.226c.218.218.109.328-.109.437Z" transform="translate(-102.1 -89.853)"/><path class="h" d="M119.554,99.082l2.294-.546" transform="translate(-102.8 -91.721)"/><path class="f" d="M119.437,99.184c-.109,0-.109,0-.109-.109s0-.109.109-.218l2.294-.546c.109,0,.109,0,.218.109,0,.109,0,.109-.109.218l-2.4.546Z" transform="translate(-102.684 -91.605)"/><path class="h" d="M123.622,102.254l1.748-.328" transform="translate(-104.902 -93.473)"/><path class="f" d="M123.505,102.129c-.109,0-.109,0-.109-.109s0-.109.109-.218l1.747-.328c.109,0,.109,0,.218.109s0,.109-.109.218Z" transform="translate(-104.786 -93.24)"/><path class="h" d="M125.882,105.986l1.747-.218" transform="translate(-106.07 -95.458)"/><path class="f" d="M125.765,105.979c-.109,0-.109,0-.109-.109s0-.109.109-.109l1.748-.218c.109,0,.109,0,.109.109s0,.109-.109.109Z" transform="translate(-105.953 -95.342)"/><path class="h" d="M106.22,96.05l.218,1.638" transform="translate(-95.91 -90.437)"/><path class="f" d="M106.322,97.681c-.109,0-.109,0-.109-.109l-.218-1.638c0-.109,0-.109.109-.109s.109,0,.109.109l.218,1.638C106.431,97.681,106.431,97.681,106.322,97.681Z" transform="translate(-95.794 -90.32)"/><path class="h" d="M102.83,98.084l.546,1.748" transform="translate(-94.159 -91.488)"/><path class="f" d="M103.259,99.707c-.109,0-.109,0-.109-.109L102.6,97.85c0-.109,0-.109.109-.218.109,0,.109,0,.218.109l.546,1.748C103.369,99.6,103.369,99.707,103.259,99.707Z" transform="translate(-94.042 -91.254)"/><path class="h" d="M99.214,101.248l1.092,1.529" transform="translate(-92.29 -93.123)"/><path class="f" d="M100.189,102.653a.107.107,0,0,1-.109-.109l-1.092-1.529V100.8h.218l1.092,1.529C100.3,102.544,100.3,102.653,100.189,102.653Z" transform="translate(-92.173 -92.889)"/><path class="h" d="M96.728,119.1h1.748" transform="translate(-91.006 -102.348)"/><path class="f" d="M96.611,119.2a.109.109,0,1,1,0-.218l1.748-.109a.109.109,0,0,1,0,.218Z" transform="translate(-90.889 -102.232)"/><path class="h" d="M98.762,122.586l1.748-.546" transform="translate(-92.057 -103.866)"/><path class="f" d="M98.645,122.462c-.109,0-.109,0-.109-.109s0-.109.109-.218l1.748-.546c.109,0,.109,0,.218.109,0,.109,0,.109-.109.218l-1.857.546Z" transform="translate(-91.94 -103.633)"/><path class="h" d="M102.6,125.743l1.529-.765" transform="translate(-94.042 -105.385)"/><path class="f" d="M102.487,125.618a.107.107,0,0,1-.109-.109c0-.109,0-.109.109-.218l1.42-.765c.109,0,.109,0,.218.109,0,.109,0,.109-.109.218l-1.529.765Z" transform="translate(-93.925 -105.151)"/><path class="h" d="M107.576,127.769l1.092-.983" transform="translate(-96.611 -106.319)"/><path class="f" d="M107.459,127.761h0a.338.338,0,0,1-.109-.218l1.092-.983h.218v.218l-1.2.983h0Z" transform="translate(-96.494 -106.202)"/><path class="h" d="M113,128.424l.765-1.638" transform="translate(-99.414 -106.319)"/><path class="f" d="M112.883,128.417h0c-.109-.109-.109-.109-.109-.218l.874-1.529c0-.109.109-.109.218-.109s.109.109.109.218l-.874,1.529A.338.338,0,0,1,112.883,128.417Z" transform="translate(-99.297 -106.202)"/><path class="h" d="M118.65,127.52l.109-1.638" transform="translate(-102.333 -105.852)"/><path class="f" d="M118.533,127.513h0a.107.107,0,0,1-.109-.109l.109-1.638a.109.109,0,0,1,.218,0l-.109,1.638A.107.107,0,0,1,118.533,127.513Z" transform="translate(-102.216 -105.735)"/><path class="g" d="M110.514,94.577a8.268,8.268,0,0,1,1.638-.109" transform="translate(-98.129 -89.619)"/><g transform="translate(12.057 4.63)"><path class="f" d="M110.164,94.671c-.109,0-.218-.109-.328-.218,0-.109.109-.328.218-.328a8.268,8.268,0,0,1,1.638-.109c.109,0,.328.109.218.328,0,.109-.109.218-.328.218A7.252,7.252,0,0,0,110.164,94.671Z" transform="translate(-109.836 -94.016)"/></g><path class="e" d="M6.96,3.375A3.585,3.585,0,1,0,10.544,6.96,3.584,3.584,0,0,0,6.96,3.375ZM8.4,7.027,6.039,8.457a.077.077,0,0,1-.115-.067V5.529a.076.076,0,0,1,.115-.067L8.4,6.893A.079.079,0,0,1,8.4,7.027Z" transform="translate(6.828 6.563)"/></g></g></g></svg>