<svg xmlns="http://www.w3.org/2000/svg" width="131.312" height="40" viewBox="0 0 131.312 40">
  <g id="ZF_WABCO_LOGO" data-name="ZF WABCO LOGO" transform="translate(-73.016 -170.079)">
    <path id="Path_617" data-name="Path 617" d="M104.6,190.007v-2.446H99.707v-6.188h9.133a18.077,18.077,0,0,1,0,17.411H85.713l8.022-19.857H78.812a18.059,18.059,0,0,1,28.408,0H94.311v18.058h5.4v-6.978Zm-27.407-8.634h9.737L78.905,201.23H107.22a18.06,18.06,0,0,1-30.029-19.857m35.825,8.705a20,20,0,1,0-20,20,20,20,0,0,0,20-20" transform="translate(0 0)" fill="#1179bf"/>
    <g id="Group_750" data-name="Group 750" transform="translate(124.412 183.412)">
      <path id="Path_618" data-name="Path 618" d="M306.083,206.9c.061,2.2.161,4.829-4.261,4.859h-4.413c-4.493.021-4.129-3.28-4.271-5.042v-4.849c0-1.892.787-3.462,4.291-3.442h4.089c3.836-.02,4.594,1.549,4.594,3.442v.931h-5.069c0-1.174-.252-1.9-1-2h-.818c-.747-.01-1,.921-1,2.1v3.017c.071,1.184.03,3.087,1.12,3.1h.585c.879.02,1.031-.921,1.081-2.116Z" transform="translate(-240.995 -198.425)" fill="#1179bf"/>
      <path id="Path_619" data-name="Path 619" d="M193.961,203.427l-1.255,8.344h-7.578l-2.846-13.119h4.9l1.581,9.449,1.968-9.449h6.436l1.958,9.449,1.592-9.449h4.9l-2.836,13.119h-7.588Z" transform="translate(-182.283 -198.545)" fill="#1179bf"/>
      <path id="Path_620" data-name="Path 620" d="M236.1,207.286l1.235-4.675,1.162,4.675Zm3.02,2.6.5,1.893h5.356l-4.03-13.124h-7.295l-3.877,13.124h5.173l.459-1.893Z" transform="translate(-207.438 -198.546)" fill="#1179bf"/>
      <g id="Group_749" data-name="Group 749" transform="translate(38.053 0)">
        <path id="Path_621" data-name="Path 621" d="M270.043,203.734a.88.88,0,0,0,.866-.868v-.929a.88.88,0,0,0-.866-.868h-1.5v2.666Zm.076,5.247a.823.823,0,0,0,.835-.868v-1.021a.879.879,0,0,0-.866-.868h-1.527v2.757Zm2.689,2.788h-9.626V198.656h10.858a2.127,2.127,0,0,1,2.313,2.44v1.165s.081,2.165-1.884,2.421a2.944,2.944,0,0,1,2.037,2.89s-.01,1.051-.01,1.062c-.032,2.961-2.414,3.176-3.688,3.135" transform="translate(-263.183 -198.546)" fill="#1179bf"/>
        <path id="Path_622" data-name="Path 622" d="M330.172,208.964c1.1-.01,1.172-1.9,1.172-3.057v-3.078c.03-1.174-.334-2.106-1.061-2.1h-1.474c-.747-.01-1,.921-1,2.1v3.078c.01,1.195.131,3.047,1.222,3.057Zm-3.3,2.794c-4.211-.01-4.2-3.169-4.271-5.041v-4.85a3.448,3.448,0,0,1,3.433-3.442h7.048a3.448,3.448,0,0,1,3.433,3.442v4.85c-.02,1.842-.05,5.031-4.291,5.041Z" transform="translate(-294.651 -198.425)" fill="#1179bf"/>
      </g>
    </g>
  </g>
</svg>
